# xmcd
#
# Track frame offsets:
#  150
#  21830
#  42670
#  59932
#  80825
#  95042
#  108010
#  118855
#  175985
#
# Disc length: 4440 seconds
#
# Revision: 0
# Processed by: cddbd v1.5.1PL2 Copyright (c) Steve Scherf et al.
# Submitted via: Collectorz.com_Music_Collector 6.10
#
DISCID=83115609
DTITLE=Groundhogs - Who Will Save The World?
DYEAR=2003
DGENRE=Blues Rock
TTITLE0=McPhee, Tony - Earth Is Not Room Enough
TTITLE1=McPhee, Tony - Wages Of Peace
TTITLE2=McPhee, Tony - Body In Mind
TTITLE3=McPhee, Tony - Music Is The Food Of Thought
TTITLE4=McPhee, Tony - Bog Roll Blues
TTITLE5=McPhee, Tony - Death Of The Sun
TTITLE6=Traditional - Amazing Grace
TTITLE7=McPhee, Tony - The Grey Maze
TTITLE8=Data track
EXTD=
EXTT0=
EXTT1=
EXTT2=
EXTT3=
EXTT4=
EXTT5=
EXTT6=
EXTT7=
EXTT8=
PLAYORDER=
